<?xml version="1.0" standalone="no"?>
<!DOCTYPE svg PUBLIC "-//W3C//DTD SVG 1.1//EN" "http://www.w3.org/Graphics/SVG/1.1/DTD/svg11.dtd" >
<svg xmlns="http://www.w3.org/2000/svg" xmlns:svg="http://www.w3.org/2000/svg" xmlns:xlink="http://www.w3.org/1999/xlink" viewBox="0 0 1024 1024"><path d="M72.8 257.54Q64.76 251.16 102.11 241.45Q124.26 237.52 139.64 245.92Q132 229.69 129.18 234.54Q125.02 203.02 135.78 204.51Q141.91 211.18 151.51 190.51Q131.19 168.36 135.86 188.72Q130.59 179.74 128.9 166.94Q131.78 139.52 133.13 150.2Q114.03 151.89 130.48 132.22Q136.89 143.87 140.73 126.6Q159.98 98.28 141.14 107.32Q146.88 98.87 178.58 93.97Q167.1 109.75 170.56 129.67Q177.84 128.81 218.92 172.49Q218.26 214.9 220.92 213.37Q218.31 245.41 229.37 222Q259.14 245.06 244.13 217.16Q254.66 244.19 274.52 227.74Q258.76 238.64 262.57 206.08Q257.59 179.11 287.92 152.85Q307.32 97.31 311.13 85.36Q325.67 95.52 354.1 93.96Q356.93 80.56 363.3 115.21Q387.85 101.43 363.22 124.42Q354.11 120.68 385.3 126.56Q383.8 145.2 371.52 162.55Q345.54 206.12 312.14 218.05Q318.59 208.12 354.34 232.66Q333.49 212.6 370.95 241.97Q383.52 242.25 408.9 245.69Q422.4 248.33 426.39 264.13Q416.21 260.05 421.05 277.86Q444.71 284.79 412.86 287.65Q425.05 282.62 422.36 310.52Q405.74 277.95 422.72 292.47Q399.9 281.76 353.98 312.04L283.1 304.05V363.37L294.34 403.12H342.63Q383.71 397.86 398.57 430.26Q425.13 436.41 407.48 444.69Q401.47 416.66 411.31 450.51Q387.03 455.45 394.32 443.65Q419.51 442.55 399.51 486.4Q389.88 491.07 320.95 456.72H276.81V551.48Q288.47 563.32 310.02 549.44Q297.75 567.79 289.87 583.09Q283.09 590.54 298.87 582.8Q315.9 580.21 344.56 599.46Q386.14 590.91 369.73 596.38Q403.49 577.52 410.14 573.18Q414.46 602.91 408.85 624.25Q418.65 620.91 395.36 627.8Q419.54 615.07 385.23 658.34Q389.11 646.1 360.58 657.6Q361.76 640.68 300.27 680.26Q271.48 649.77 261.02 669.22Q260.66 680.5 254.46 709.6Q254.33 789.22 188.89 840.1Q153.36 902.1 158.14 922.2Q153.74 916.48 153.63 917.08Q143.4 931.17 129.04 943.66Q130.99 930.96 115.98 930.43Q119.28 936.92 110.44 922.36Q111.34 909.75 103.95 884.6Q124.39 893.69 127.66 821.11Q128.26 789.92 163.5 771.38Q178.19 756.93 182.12 735.97L194.36 691.35L157.02 703.38Q132.56 688.31 115.18 716.39Q113.02 706.22 126.49 719.53Q83.94 689.63 87.52 685.93Q68.79 688.5 69.8 676.63Q77.83 677.21 65.14 680.3Q82.66 635.41 99.41 640.67Q73.33 637.02 110.3 635.42Q121.29 616.32 146.78 623.64L229.01 596.65L208.84 479.64H181.72Q173.74 495.19 124.93 486.89Q125.99 468.08 131.32 485.73Q118.92 462.02 92.25 445.7Q120.89 465.47 98.36 445.21Q121.51 429.77 121.27 450.04Q103.99 443.29 147.85 431.55Q163.07 430.71 199.78 421.74H210.9V314.55H171.45Q124.28 325.03 118.6 322.79Q68.52 305.26 76.97 287.18Q60.75 276.65 63.33 257.51Q52.46 256.84 67.37 245.76ZM719.72 590.08Q721.86 576.78 736.45 531.4Q734.31 540.46 770.35 530.16Q780.03 501.79 804.59 488.89Q797.13 476.58 852.83 453.54Q883.13 447.77 882.14 446.22Q888.13 428.98 896.72 400.93Q898.95 370.62 865.53 315.25V210.37L786.56 220.22Q770.86 202.84 733.75 186.07Q727.25 181.32 733.56 182.43Q708.57 156.09 697.16 170.72Q699.51 135.36 717.39 154.51Q722.34 137.82 727.02 125.01Q738.54 135.95 767.75 116.17Q797.28 130.86 827.47 107.17Q887.76 123.65 916.52 141.15Q933.97 137.17 934.45 120.93Q970.61 186.39 951.53 444.77Q941.16 476.43 942.13 653.38Q941.25 845.81 959.51 925.15Q933.31 939.15 932.55 924.88Q894.35 916.24 869.92 887.3Q827.92 853.49 836.51 838.58Q797.84 841.35 801.86 809.9Q792.05 822.53 821.54 819.47Q815.19 812.51 831.58 790.49Q851.05 800.48 854.57 789.22H900.8V685.13Q898.49 608.72 898.04 572.74Q874.03 549.9 892.98 553.75Q876.91 549.41 853.7 562.06Q865.61 561.09 847.55 543.23Q841.03 572.97 813.45 602.31Q781.11 618.52 763.85 634.16Q738.53 653.4 747.91 641.14Q747.48 635.07 754.33 644.98Q746.08 620.22 734.94 615.45Q697.5 599.94 695.81 590.31Q693.01 584.2 721.91 575.39ZM458.75 131.74Q443.68 121.52 573.69 132.28Q661.97 132.27 685.92 122.65Q655.13 135.44 656.79 119.79Q697.45 124.14 699.79 202.41Q703.91 280.25 670.72 519.24Q667.88 579.69 688.86 684.73Q702.98 804.08 668.02 850.62Q665.59 902.26 655.79 904.11Q653.11 929.44 643.16 902.02Q610.51 899.04 600.6 868.5Q569.47 856.5 563.99 827.1Q543.11 812.25 542.68 824.73Q556.51 803.43 575.24 807.53H614.62V703.12Q621.03 630.92 591.13 592.92Q612.85 607.12 595.16 596.45Q618.09 595.98 593.32 588.63Q586.87 607.13 546.11 631.92Q538.29 632.91 507.67 654.5Q485.43 697.46 467.81 705.88Q471.94 703.94 462.34 713.81Q462.09 715.6 457.62 686.54Q425.99 674.99 435.09 646.45Q443.05 641.52 444.46 647.31Q443.43 626.46 496.66 581.34Q532.07 562.28 523.09 547.56Q551.39 518.11 590.38 522.39L589.25 477.85V184.52H549.94Q484.75 188.61 465.92 181.18Q448.7 211.18 459.62 187.76Q412.23 183.64 437.49 171.49Q440.59 120.46 457.36 112.3ZM449.61 365.89Q489.74 334.8 464.43 353.96Q483.11 335.61 512.77 323.64Q503.73 352.82 506 358.63Q525.44 332.7 514.71 352.23Q525.78 364.66 554.2 370.55Q580.72 406.38 578.24 445.73Q571.51 438.01 552.1 435.58Q561.19 436.9 545.09 450.57Q557.64 460.36 525 457.96Q527.6 490.66 516.36 479.64Q492.62 483.71 465.58 413.52Q460.93 382.81 466.16 357.95Q458.6 357.39 475.71 354.81Q458.64 356.47 465.88 331.51ZM746.34 298.44Q748.27 327.87 749.13 299.19Q732.75 331.45 761.66 304.03Q773.57 333.41 810.39 343.75Q831.96 369.23 845.79 413.71Q847.34 433.75 825.32 445.56Q792.06 444.47 782.94 432.02Q802.3 442.55 778.5 430.5Q737.14 425.49 739.17 393.81Q719.91 359.01 723.58 344.73Q744.29 331.2 744.73 305.18Z" fill="black"></path></svg>