<?xml version="1.0" standalone="no"?>
<!DOCTYPE svg PUBLIC "-//W3C//DTD SVG 1.1//EN" "http://www.w3.org/Graphics/SVG/1.1/DTD/svg11.dtd" >
<svg xmlns="http://www.w3.org/2000/svg" xmlns:svg="http://www.w3.org/2000/svg" xmlns:xlink="http://www.w3.org/1999/xlink" viewBox="0 0 1024 1024"><path d="M69.0 257.0Q80.0 240.0 114.0 237.0Q135.0 235.0 139.5 231.5Q144.0 228.0 144.0 221.0Q144.0 218.0 143.0 213.0Q143.0 204.0 139.0 193.5Q135.0 183.0 132.0 175.0Q126.0 166.0 123.5 158.0Q121.0 150.0 119.0 145.0Q119.0 143.0 119.0 141.0Q119.0 127.0 130.0 117.0Q141.0 107.0 161.0 105.0Q163.0 105.0 165.0 105.0Q178.0 105.0 184.5 116.0Q191.0 127.0 211.0 183.0Q216.0 201.0 223.5 214.5Q231.0 228.0 234.0 231.0Q241.0 234.0 246.0 234.0Q252.0 234.0 258.5 230.0Q265.0 226.0 265.0 211.0Q267.0 188.0 286.5 145.0Q306.0 102.0 319.0 94.0Q328.0 90.0 336.0 90.0Q348.0 90.0 358.5 100.0Q369.0 110.0 369.0 129.0Q369.0 134.0 368.0 138.0Q364.0 148.0 354.0 174.5Q344.0 201.0 332.0 224.0Q332.0 226.0 341.0 227.5Q350.0 229.0 364.0 229.0Q396.0 229.0 413.5 237.5Q431.0 246.0 432.0 264.0Q433.0 269.0 433.0 274.0Q433.0 277.0 432.0 282.0Q431.0 287.0 427.0 291.0Q423.0 292.0 403.5 296.0Q384.0 300.0 357.0 300.0L294.0 303.0V354.0L292.0 404.0H339.0Q378.0 404.0 392.5 410.5Q407.0 417.0 407.0 432.0Q407.0 434.0 407.0 436.0Q407.0 439.0 407.0 441.0Q407.0 459.0 392.5 467.5Q378.0 476.0 339.0 476.0H292.0V534.0Q291.0 548.0 291.0 558.0Q291.0 584.0 296.5 588.0Q302.0 592.0 311.0 592.0Q326.0 592.0 357.0 584.0Q378.0 580.0 388.0 580.0Q398.0 580.0 404.0 584.0Q414.0 593.0 414.0 605.0Q414.0 607.0 412.5 616.0Q411.0 625.0 395.0 640.0Q384.0 651.0 364.0 655.5Q344.0 660.0 288.0 665.0Q281.0 665.0 275.0 676.0Q269.0 687.0 261.0 712.0Q240.0 778.0 206.5 850.0Q173.0 922.0 157.0 933.0Q154.0 934.0 150.0 934.0Q148.0 934.0 142.5 933.5Q137.0 933.0 130.0 931.0Q111.0 924.0 111.0 903.0Q111.0 902.0 111.5 889.5Q112.0 877.0 137.0 827.0Q148.0 804.0 159.5 775.0Q171.0 746.0 179.0 728.0L193.0 688.0L173.0 692.0Q132.0 699.0 122.5 699.5Q113.0 700.0 110.0 700.0Q98.0 700.0 90.0 696.0Q80.0 688.0 79.0 678.0Q78.0 668.0 78.0 666.0Q78.0 653.0 87.0 645.0Q90.0 642.0 110.0 635.5Q130.0 629.0 157.0 622.0L216.0 607.0L220.0 481.0H175.0Q155.0 481.0 138.0 479.5Q121.0 478.0 116.0 476.0Q107.0 469.0 105.0 461.0Q103.0 453.0 103.0 449.0Q103.0 440.0 108.0 431.0Q116.0 424.0 140.0 417.5Q164.0 411.0 193.0 411.0H220.0V307.0H155.0Q114.0 307.0 99.5 304.0Q85.0 301.0 78.0 294.0Q65.0 281.0 65.0 269.0Q65.0 263.0 69.0 257.0ZM706.0 595.0Q710.0 575.0 738.0 550.0Q753.0 535.0 767.5 523.5Q782.0 512.0 792.0 507.0Q812.0 494.0 840.0 471.5Q868.0 449.0 875.0 440.0Q877.0 435.0 879.0 401.5Q881.0 368.0 881.0 319.0V204.0L803.0 202.0Q753.0 201.0 736.5 198.0Q720.0 195.0 715.0 188.0Q706.0 174.0 706.0 159.5Q706.0 145.0 717.0 136.0Q722.0 129.0 739.0 127.5Q756.0 126.0 779.0 126.0Q802.0 126.0 837.0 127.0Q902.0 127.0 926.5 129.5Q951.0 132.0 953.0 138.0Q959.0 188.0 959.0 448.0Q959.0 485.0 958.5 671.5Q958.0 858.0 953.0 917.0Q946.0 929.0 933.0 929.0Q914.0 929.0 881.0 904.0Q828.0 868.0 819.0 852.0Q810.0 836.0 810.0 826.0Q810.0 814.0 819.0 802.0Q825.0 796.0 833.0 792.5Q841.0 789.0 855.0 789.0H881.0V672.0Q881.0 624.0 880.0 589.5Q879.0 555.0 877.0 552.0Q875.0 550.0 872.0 550.0Q865.0 550.0 846.5 560.5Q828.0 571.0 794.0 600.0Q776.0 616.0 761.5 626.0Q747.0 636.0 744.0 638.0Q742.0 638.0 735.5 634.5Q729.0 631.0 722.0 627.0Q705.0 617.0 705.0 601.0Q705.0 598.0 706.0 595.0ZM443.0 123.0Q463.0 120.0 557.5 120.0Q652.0 120.0 674.0 125.0Q674.0 125.0 674.0 125.0Q679.0 125.0 681.5 198.0Q684.0 271.0 684.0 508.0Q685.0 598.0 685.0 666.0Q685.0 820.0 681.5 868.5Q678.0 917.0 661.0 917.0Q658.0 917.0 654.0 915.0Q625.0 913.0 589.0 884.5Q553.0 856.0 551.0 832.0Q551.0 818.0 562.0 809.0Q573.0 800.0 591.0 800.0H609.0V692.0Q609.0 627.0 607.0 608.0Q605.0 589.0 601.0 589.0Q601.0 589.0 600.0 589.0Q585.0 598.0 561.0 621.5Q537.0 645.0 519.0 669.0Q495.0 697.0 483.5 699.5Q472.0 702.0 469.0 702.0Q452.0 702.0 441.0 679.0Q437.0 671.0 437.0 663.0Q437.0 651.0 448.0 633.0Q459.0 615.0 499.0 579.0Q519.0 561.0 540.5 541.0Q562.0 521.0 576.0 510.0L605.0 483.0V197.0H530.0Q497.0 197.0 473.0 195.0Q449.0 193.0 443.0 193.0Q425.0 184.0 425.0 161.0Q425.0 138.0 443.0 123.0ZM468.0 346.0Q472.0 343.0 479.0 341.0Q486.0 339.0 495.0 339.0Q498.0 339.0 500.0 339.0Q511.0 339.0 518.5 347.0Q526.0 355.0 544.0 388.0Q564.0 422.0 565.5 428.5Q567.0 435.0 567.0 438.0Q567.0 446.0 560.0 453.0Q547.0 474.0 533.0 474.0Q529.0 474.0 517.5 469.5Q506.0 465.0 483.0 420.0Q465.0 388.0 463.0 377.5Q461.0 367.0 461.0 363.0Q461.0 353.0 468.0 346.0ZM737.0 318.0Q738.0 316.0 744.5 315.0Q751.0 314.0 758.0 314.0Q780.0 316.0 803.5 346.5Q827.0 377.0 828.0 406.0Q828.0 431.0 815.5 436.5Q803.0 442.0 797.0 442.0Q785.0 442.0 774.0 433.0Q753.0 408.0 743.0 378.0Q733.0 348.0 733.0 334.0Q733.0 324.0 737.0 318.0Z" fill="black"></path></svg>